<?xml version="1.0" encoding="utf-8"?>
<!-- Generator: Adobe Illustrator 16.0.3, SVG Export Plug-In . SVG Version: 6.00 Build 0)  -->
<!DOCTYPE svg PUBLIC "-//W3C//DTD SVG 1.1//EN" "http://www.w3.org/Graphics/SVG/1.1/DTD/svg11.dtd">
<svg version="1.1" id="Layer_1" xmlns="http://www.w3.org/2000/svg" xmlns:xlink="http://www.w3.org/1999/xlink" x="0px" y="0px"
	 width="196px" height="52px" viewBox="0 0 196 52" enable-background="new 0 0 196 52" xml:space="preserve">
<path fill="#21BAEA" d="M13.276,41.005c-7.436,0-11.154-4.082-11.154-12.244c0-4.06,1.011-7.161,3.034-9.306
	c2.022-2.144,4.921-3.216,8.697-3.216c2.763,0,5.242,0.542,7.436,1.624l-1.923,5.043c-1.026-0.413-1.98-0.751-2.863-1.015
	c-0.883-0.264-1.767-0.396-2.649-0.396c-3.391,0-5.085,2.407-5.085,7.222c0,4.673,1.695,7.009,5.085,7.009
	c1.253,0,2.414-0.167,3.483-0.502c1.068-0.335,2.137-0.858,3.205-1.57v5.577c-1.055,0.669-2.119,1.132-3.195,1.389
	C16.271,40.876,14.914,41.005,13.276,41.005z M36.887,41.005c-3.846,0-6.852-1.062-9.017-3.185
	c-2.166-2.122-3.248-5.128-3.248-9.017c0-4.003,1-7.098,3.002-9.284s4.769-3.28,8.301-3.28c3.376,0,6.004,0.962,7.885,2.885
	s2.82,4.58,2.82,7.971v3.162H31.225c0.071,1.852,0.62,3.298,1.646,4.338c1.025,1.039,2.464,1.56,4.316,1.56
	c1.439,0,2.799-0.149,4.081-0.449c1.282-0.299,2.621-0.776,4.017-1.432v5.043c-1.14,0.57-2.357,0.993-3.654,1.271
	C40.334,40.865,38.753,41.005,36.887,41.005z M35.968,20.876c-1.382,0-2.465,0.438-3.248,1.314
	c-0.784,0.876-1.232,2.119-1.346,3.729h9.146c-0.029-1.609-0.449-2.853-1.261-3.729S37.35,20.876,35.968,20.876z M73.981,40.577
	h-6.517V26.624c0-1.724-0.307-3.016-0.919-3.878c-0.613-0.862-1.588-1.293-2.927-1.293c-1.824,0-3.141,0.609-3.953,1.827
	s-1.218,3.237-1.218,6.058v11.239H51.93V16.688h4.979l0.876,3.056h0.363c0.727-1.154,1.727-2.026,3.002-2.618
	c1.275-0.591,2.725-0.887,4.349-0.887c2.778,0,4.886,0.752,6.325,2.255c1.438,1.503,2.158,3.672,2.158,6.506V40.577z M90.754,35.812
	c1.14,0,2.507-0.249,4.103-0.748v4.851c-1.624,0.727-3.619,1.09-5.983,1.09c-2.607,0-4.505-0.659-5.694-1.977
	c-1.189-1.317-1.784-3.294-1.784-5.93V21.581h-3.12v-2.756l3.59-2.18l1.88-5.042h4.167v5.085h6.688v4.893h-6.688v11.518
	c0,0.926,0.26,1.609,0.78,2.051C89.212,35.592,89.9,35.812,90.754,35.812z M99.408,10.513c0-2.123,1.182-3.184,3.547-3.184
	s3.547,1.061,3.547,3.184c0,1.012-0.295,1.798-0.887,2.361c-0.592,0.563-1.479,0.844-2.66,0.844
	C100.59,13.718,99.408,12.65,99.408,10.513z M106.203,40.577h-6.518V16.688h6.518V40.577z M118.725,40.577l-9.103-23.889h6.816
	l4.615,13.611c0.513,1.724,0.833,3.354,0.962,4.893h0.128c0.071-1.367,0.392-2.998,0.961-4.893l4.595-13.611h6.816l-9.103,23.889
	H118.725z M137.655,10.513c0-2.123,1.183-3.184,3.548-3.184c2.364,0,3.547,1.061,3.547,3.184c0,1.012-0.296,1.798-0.887,2.361
	c-0.592,0.563-1.479,0.844-2.66,0.844C138.838,13.718,137.655,12.65,137.655,10.513z M144.45,40.577h-6.517V16.688h6.517V40.577z
	 M167.912,40.577h-18.868v-3.846l11.068-15.064h-10.405v-4.979h17.82v4.23l-10.77,14.68h11.154V40.577z M183.446,41.005
	c-3.846,0-6.852-1.062-9.017-3.185c-2.166-2.122-3.248-5.128-3.248-9.017c0-4.003,1.001-7.098,3.002-9.284s4.769-3.28,8.302-3.28
	c3.376,0,6.004,0.962,7.884,2.885c1.881,1.923,2.821,4.58,2.821,7.971v3.162h-15.406c0.071,1.852,0.62,3.298,1.646,4.338
	c1.025,1.039,2.464,1.56,4.316,1.56c1.438,0,2.799-0.149,4.081-0.449c1.282-0.299,2.62-0.776,4.017-1.432v5.043
	c-1.14,0.57-2.357,0.993-3.653,1.271C186.894,40.865,185.312,41.005,183.446,41.005z M182.527,20.876
	c-1.382,0-2.464,0.438-3.247,1.314c-0.784,0.876-1.232,2.119-1.347,3.729h9.146c-0.028-1.609-0.449-2.853-1.261-3.729
	S183.909,20.876,182.527,20.876z M13,12h5v6h-5V12z M13,38h5v6h-5V38z"/>
</svg>
