<?xml version="1.0" encoding="utf-8"?>
<!-- Generator: Adobe Illustrator 16.0.3, SVG Export Plug-In . SVG Version: 6.00 Build 0)  -->
<!DOCTYPE svg PUBLIC "-//W3C//DTD SVG 1.1//EN" "http://www.w3.org/Graphics/SVG/1.1/DTD/svg11.dtd">
<svg version="1.1" id="Layer_1" xmlns="http://www.w3.org/2000/svg" xmlns:xlink="http://www.w3.org/1999/xlink" x="0px" y="0px"
	 width="60px" height="60px" viewBox="0 0 60 60" enable-background="new 0 0 60 60" xml:space="preserve">
<g>
	<circle fill="none" stroke="#FDE45A" stroke-width="2" stroke-miterlimit="10" cx="29.812" cy="29.812" r="25.188"/>
	<path fill="#FDE45A" d="M30.02,42.646c-7.485,0-11.228-4.109-11.228-12.325c0-4.086,1.018-7.208,3.055-9.367
		c2.036-2.158,4.954-3.237,8.755-3.237c2.781,0,5.275,0.546,7.484,1.635l-1.937,5.077c-1.032-0.416-1.994-0.756-2.882-1.021
		c-0.889-0.266-1.778-0.398-2.666-0.398c-3.414,0-5.12,2.423-5.12,7.269c0,4.705,1.707,7.056,5.12,7.056
		c1.261,0,2.43-0.168,3.505-0.505c1.075-0.338,2.151-0.864,3.226-1.581v5.614c-1.062,0.674-2.133,1.139-3.216,1.398
		C33.035,42.517,31.669,42.646,30.02,42.646z M29.742,13.45h5.033v6.04h-5.033V13.45z M29.742,39.621h5.033v6.04h-5.033V39.621z"/>
</g>
</svg>
